<svg xmlns="http://www.w3.org/2000/svg" viewBox="0 0 478 90.3"><defs><style>.cls-1{fill:#000;}</style></defs><title>Varlık 1</title><g id="katman_2" data-name="katman 2"><g id="katman_1-2" data-name="katman 1"><g id="title"><path id="path124557" class="cls-1" d="M60,90.28v-42H5v42H0v-47H60V.28h5v90Z"/><path id="path124559" class="cls-1" d="M126.88,90.3a43.87,43.87,0,0,1-17.43-3.49,46.59,46.59,0,0,1-14.31-9.74,47.52,47.52,0,0,1-9.62-14.3A44,44,0,0,1,82,45.33,43.87,43.87,0,0,1,85.52,27.9,45.26,45.26,0,0,1,109.33,3.61,42.9,42.9,0,0,1,126.88,0a42.12,42.12,0,0,1,17.44,3.61,44,44,0,0,1,14.18,9.86A45.45,45.45,0,0,1,168,27.9a43.87,43.87,0,0,1,3.49,17.43A44,44,0,0,1,168,62.77a46,46,0,0,1-23.8,24A43.06,43.06,0,0,1,126.88,90.3Zm0-85.25A37.81,37.81,0,0,0,111.37,8.3,39.31,39.31,0,0,0,98.75,17,39.94,39.94,0,0,0,90.21,29.7a40,40,0,0,0,0,31,41.79,41.79,0,0,0,8.54,12.75,42,42,0,0,0,12.62,8.65,39,39,0,0,0,15.51,3.13A37,37,0,0,0,142.27,82a40.67,40.67,0,0,0,12.51-8.65,41.94,41.94,0,0,0,8.53-12.75,39.4,39.4,0,0,0,0-30.78,40.08,40.08,0,0,0-8.53-12.75A39.68,39.68,0,0,0,142.27,8.3,37,37,0,0,0,126.88,5.05Z"/><path id="path124561" class="cls-1" d="M205,90.28v-85H171v-5h73v5H210v85Z"/><path id="path124563" class="cls-1" d="M312,.28v5H262v38h43v5l-43-.13V85.28h50v5H257V.28Z"/><path id="path124565" class="cls-1" d="M330,90.28V.28h5v85h50v5Z"/><path id="path124567" class="cls-1" d="M402,90.28V.28l70,76.2V.28h6v90L408,13.12V90.28Z"/></g></g></g></svg>