<svg xmlns="http://www.w3.org/2000/svg" viewBox="0 0 241 147.5"><defs><style>.cls-1{fill:none;stroke:#000;stroke-linecap:round;stroke-linejoin:round;stroke-width:7px;}</style></defs><title>Varlık 1</title><g id="katman_2" data-name="katman 2"><g id="Layer_1" data-name="Layer 1"><path class="cls-1" d="M3.5,70.5a15,15,0,0,0,15,15h204a15,15,0,0,0,15-15v-52a15,15,0,0,0-15-15H18.5a15,15,0,0,0-15,15Z"/><rect class="cls-1" x="29.5" y="58.5" width="144" height="27"/><circle cx="193.67" cy="67.5" r="5"/><circle cx="213.67" cy="67.5" r="5"/><line class="cls-1" x1="29" y1="23.5" x2="214" y2="23.5"/><line class="cls-1" x1="29" y1="39.5" x2="214" y2="39.5"/><line class="cls-1" x1="41.5" y1="106" x2="41.5" y2="124"/><line class="cls-1" x1="71.5" y1="106" x2="71.5" y2="134"/><line class="cls-1" x1="101.5" y1="106" x2="101.5" y2="144"/><line class="cls-1" x1="131.5" y1="106" x2="131.5" y2="134"/><line class="cls-1" x1="161.5" y1="106" x2="161.5" y2="124"/></g></g></svg>