<svg xmlns="http://www.w3.org/2000/svg" viewBox="0 0 79.32 48.59"><title>Varlık 1</title><g id="katman_2" data-name="katman 2"><g id="Layer_14" data-name="Layer 14"><path d="M79.32,23.7a4.11,4.11,0,0,0-3.84-4.11H10.65V6.65A4.74,4.74,0,0,1,15.37,2,4.41,4.41,0,0,1,20.08,6.1c0,.16,0,.33,0,.49h2A6.48,6.48,0,0,0,15.74,0h-.37A6.75,6.75,0,0,0,8.65,6.65V19.59H3.82a4,4,0,0,0-.63,8c.46,4,3.46,8.4,11.46,11.18v9.82h4.44l2.06-8.15a102.36,102.36,0,0,0,18.5,1.44A115.24,115.24,0,0,0,58.2,40.59l2,8h4.45V39.14c7-2.28,11-6.16,11.48-11.55A4.07,4.07,0,0,0,79.32,23.7ZM17.53,46.59h-.88V39.53l2.6.61Zm45.12,0h-.88l-1.68-6.32c.92-.18,1.56-.35,2.56-.56Zm2-9.67L58,38.59a112.07,112.07,0,0,1-18.3,1.17c-21.47,0-33.34-4.17-34.52-12.17H74.2C73.83,30.59,71.9,34.5,64.65,36.92ZM75.48,25.59H3.82a2,2,0,0,1,0-4H75.48a2,2,0,0,1,0,4ZM22.19,9.94A1.15,1.15,0,1,1,21,8.79a1.15,1.15,0,0,1,1.15,1.15Zm0,3.91A1.15,1.15,0,1,1,21,12.7a1.15,1.15,0,0,1,1.15,1.15h0Zm0,4A1.15,1.15,0,1,1,21,16.7a1.15,1.15,0,0,1,1.15,1.15v0Z"/></g></g></svg>