<svg xmlns="http://www.w3.org/2000/svg" viewBox="0 0 216.1 223.4"><title>Varlık 1</title><g id="katman_2" data-name="katman 2"><g id="Ebene_1" data-name="Ebene 1"><path d="M216.1,219.4a1.7,1.7,0,0,0-.1-.7V4a4,4,0,0,0-4-4h-.5l-63,7.4H44.1a4,4,0,0,0-4,4.5C42.2,27.7,58.6,79.4,72,79.4h48c6.6,0,14.1-12.6,20.2-27.2,44.2,37.1,39.1,109.6,32.9,147.2H36a4,4,0,0,0-4,4v16a4,4,0,0,0,4,4H212a4.09,4.09,0,0,0,3.7-2.4A4.19,4.19,0,0,0,216.1,219.4Zm-96.6-148h-47c-1.8-1.1-7.3-7.2-14.3-25.4a212.88,212.88,0,0,1-9.4-30.6h94.8A212.17,212.17,0,0,1,134,46C126.9,64.2,121.3,70.4,119.5,71.4Zm50.5,144H40v-8H171.6C171,210.5,170.5,213.1,170,215.4Zm8.1,0c3.2-14.7,8.2-43.5,6.8-74.4-.9-20-4.4-37.9-10.4-53.2-7-17.9-17.4-32.5-31.1-43.4l9.9-29.6L208,8.4v207Z"/><path d="M44.3,95.1a1.45,1.45,0,0,0,.7.2c-6.4,8.4-13,23.1-13,48.1,0,32.3,3.7,42.9,6.1,46.3a3.9,3.9,0,0,0,3.3,1.7H149.9a4,4,0,0,0,3.8-2.7c1.5-4.4,2.4-15.8,2.4-45.3,0-23.8-6.4-38.3-12.9-46.9l8.3-7.7a2,2,0,0,0-1.4-3.4H61a144.23,144.23,0,0,1-21-6c-4.4-1.7-6.5-3.5-7.4-4.9A3.94,3.94,0,0,0,27.7,73C19,76.6,0,87.4,0,111.4c0,22.7,8.5,43.3,13.1,52.7a4,4,0,0,0,6.7.7l3.2-3.4a3.91,3.91,0,0,0,.3-4.6C19.8,151.3,12,136.3,12,111.4,12,82.2,39.3,93,44.3,95.1Zm102.3,88.3H43.8c-1.4-3.7-3.8-13.9-3.8-40,0-26.5,7.8-39.8,13.5-46h79.7c6.1,6,14.7,19.3,14.7,46C148,163.9,147.5,177.3,146.6,183.4Z"/><path d="M131.1,134.3l-12.6,1.6a10.45,10.45,0,0,1-2.5,0l-21.9-2.7-21.7-2.7a10.45,10.45,0,0,0-2.5,0l-15.5,1.9c-3.7.5-6.4,2.9-6.4,5.7v10c.2,14.1,1.1,22.5,2,27.3h89.3c.3-5.3.6-13.9.6-27.7V140C140,136.5,135.7,133.7,131.1,134.3Z"/><path d="M202,143.4a.94.94,0,0,0-1-1h-6a12.75,12.75,0,0,0-.1-1.9c-.2-4.1-.5-8.2-.9-12.1h6a1,1,0,0,0,0-2h-6.2c-.5-4.8-1.2-9.5-2-14h6.3a1,1,0,0,0,0-2h-6.6c-.9-4.8-2.1-9.5-3.4-14h6a1,1,0,0,0,0-2h-6.6a144.4,144.4,0,0,0-5.1-14h5.7a1,1,0,0,0,0-2h-6.5a123.31,123.31,0,0,0-7.3-14h5.9a1,1,0,0,0,0-2h-7.1a105.66,105.66,0,0,0-10.7-14h5.8a1,1,0,0,0,0-2h-7.7c-2-2.1-4.1-4.1-6.3-6.1a2,2,0,0,0-2.6,3c24.2,21.5,37.5,54.2,39.5,97.4,1.2,25.9-2,50.4-5,66.3a2,2,0,0,0,1.6,2.3h.4a2.13,2.13,0,0,0,2-1.6c.8-4.5,1.7-9.7,2.4-15.4h5.7a1,1,0,0,0,0-2h-5.4c.6-4.4,1.1-9.1,1.5-14h5.9a1,1,0,0,0,0-2h-5.7c.4-4.5.6-9.2.8-14h6a1,1,0,0,0,0-2h-5.9c.1-4.6.1-9.3,0-14h6C201.6,144.4,202,144,202,143.4Z"/></g></g></svg>