<svg xmlns="http://www.w3.org/2000/svg" viewBox="0 0 512 415.18"><title>Varlık 2</title><g id="katman_2" data-name="katman 2"><g id="Capa_1" data-name="Capa 1"><path d="M371.43,167.85A106.76,106.76,0,1,0,478.19,274.61,106.88,106.88,0,0,0,371.43,167.85Zm0,198.52a91.76,91.76,0,1,1,91.76-91.76A91.86,91.86,0,0,1,371.43,366.37Z"/><path d="M371.43,213.4a7.5,7.5,0,0,0,7.5-7.5v-3.43a7.5,7.5,0,1,0-15,0v3.43A7.5,7.5,0,0,0,371.43,213.4Z"/><path d="M417.14,218.29l-2.43,2.43a7.5,7.5,0,0,0,10.61,10.61l2.43-2.43a7.5,7.5,0,0,0-10.61-10.61Z"/><path d="M443.57,267.11h-3.43a7.5,7.5,0,0,0,0,15h3.43a7.5,7.5,0,1,0,0-15Z"/><path d="M302.72,267.11h-3.43a7.5,7.5,0,0,0,0,15h3.43a7.5,7.5,0,0,0,0-15Z"/><path d="M425.32,317.89a7.5,7.5,0,0,0-10.61,10.61l2.43,2.43a7.5,7.5,0,0,0,10.61-10.61Z"/><path d="M371.43,335.82a7.5,7.5,0,0,0-7.5,7.5v3.43a7.5,7.5,0,0,0,15,0v-3.43A7.5,7.5,0,0,0,371.43,335.82Z"/><path d="M317.54,317.89l-2.43,2.43a7.5,7.5,0,0,0,10.61,10.61l2.43-2.43a7.5,7.5,0,1,0-10.61-10.61Z"/><path d="M325.72,218.29a7.5,7.5,0,0,0-10.61,10.61l2.43,2.43a7.5,7.5,0,1,0,10.61-10.61Z"/><path d="M391.87,267.11H378.93V235a7.5,7.5,0,0,0-15,0v39.58a7.5,7.5,0,0,0,7.5,7.5h20.44a7.5,7.5,0,0,0,0-15Z"/><path d="M483.11,189.35V63.27A21.29,21.29,0,0,0,461.84,42H440.23V21.27A21.3,21.3,0,0,0,419,0H21.27A21.29,21.29,0,0,0,0,21.27V225.49a21.29,21.29,0,0,0,21.27,21.27H42.89v20.73a21.29,21.29,0,0,0,21.27,21.27h48.09a7.5,7.5,0,0,0,0-15H64.16a6.27,6.27,0,0,1-6.27-6.27V246.76H233.64a140.55,140.55,0,0,0-2.77,27H142.24a7.5,7.5,0,0,0,0,15h89.33c7.12,70.89,67.13,126.42,139.86,126.42a139.57,139.57,0,0,0,82.12-26.48,7.5,7.5,0,0,0-8.77-12.17,125.67,125.67,0,1,1,21-19A7.5,7.5,0,1,0,477,367.39a140.4,140.4,0,0,0,6.09-178ZM258,191.76H123.38a68.38,68.38,0,0,1,0-136.76h26.8a7.5,7.5,0,0,0,0-15h-26.8a83.38,83.38,0,0,0,0,166.76h125a139.28,139.28,0,0,0-10.81,25H21.27A6.27,6.27,0,0,1,15,225.49V21.27A6.27,6.27,0,0,1,21.27,15H419a6.28,6.28,0,0,1,6.28,6.27V144.75a139.25,139.25,0,0,0-26.09-8A83.41,83.41,0,0,0,316.84,40H180.17a7.5,7.5,0,0,0,0,15H316.85a68.34,68.34,0,0,1,67.44,79.64c-4.23-.39-8.52-.6-12.86-.6A140.47,140.47,0,0,0,258,191.76Zm182.28-39.69V57h21.61a6.27,6.27,0,0,1,6.27,6.27V172.66a141.89,141.89,0,0,0-27.88-20.6Z"/><path d="M230.11,115.89c-1-.34-2-.7-3-1.06V95.64l.15,0A7.4,7.4,0,0,0,232.9,82a35.24,35.24,0,0,0-5.75-1.88V76.8a7.5,7.5,0,1,0-15,0v3.5a23.23,23.23,0,0,0-16.6,18.4c-1.52,8.08,1.12,15.91,6.89,20.44a49.75,49.75,0,0,0,9.71,5.74v26.56c-2.43-.49-4.49-1.5-7.54-3.5a7.5,7.5,0,0,0-10.84,3,7.65,7.65,0,0,0,2.83,9.72c5.87,3.81,10.25,5.37,15.55,6V170a7.5,7.5,0,0,0,15,0v-4.12a27.94,27.94,0,0,0,19.7-22.07c2.09-12.4-4.64-23.6-16.74-27.88Zm-18.41-8.55c-1.31-1-1.87-3.38-1.41-5.86a9.89,9.89,0,0,1,1.86-4.13v10.33l-.45-.34Zm20.36,33.95a13,13,0,0,1-4.91,8.11V131A9.45,9.45,0,0,1,232.06,141.29Z"/><path d="M328,115.88H284.66a7.5,7.5,0,0,0,0,15H328a7.5,7.5,0,0,0,0-15Z"/><path d="M155.56,115.88H112.25a7.5,7.5,0,0,0,0,15h43.31a7.5,7.5,0,0,0,0-15Z"/></g></g></svg>