<svg xmlns="http://www.w3.org/2000/svg" viewBox="0 0 463.2 335.57"><title>Varlık 1</title><g id="katman_2" data-name="katman 2"><g id="television"><g id="television-2" data-name="television"><path d="M18,227.39H445.2V18H18ZM25.2,25.2H438v195H25.2Z"/><path d="M454.71,0H8.49A8.5,8.5,0,0,0,0,8.49V236.9a8.5,8.5,0,0,0,8.49,8.49H124.72v17.75a6,6,0,0,0,6,6h49.52l-.3,59.19H132.64v7.2h187.2v-7.2H272.2l.3-59.19h49.22a6,6,0,0,0,6-6V245.39h127a8.5,8.5,0,0,0,8.49-8.49V8.49A8.5,8.5,0,0,0,454.71,0ZM265,328.36H187.18l.3-59.19h77.81ZM320.56,262H131.92V245.39H320.56ZM456,236.9a1.29,1.29,0,0,1-1.29,1.29H8.49A1.29,1.29,0,0,1,7.2,236.9V8.49A1.29,1.29,0,0,1,8.49,7.2H454.71A1.29,1.29,0,0,1,456,8.49V236.9Z"/></g></g></g></svg>