<svg xmlns="http://www.w3.org/2000/svg" viewBox="0 0 28 28"><title>Varlık 1</title><g id="katman_2" data-name="katman 2"><g id="katman_1-2" data-name="katman 1"><g id="Wifi"><path d="M24.49,28H3.5A3.42,3.42,0,0,1,0,24.52V3.5A3.36,3.36,0,0,1,1,1,3.36,3.36,0,0,1,3.5,0h21A3.33,3.33,0,0,1,27,1a3.36,3.36,0,0,1,1,2.5v21A3.52,3.52,0,0,1,24.49,28ZM7.3,9.43A3.3,3.3,0,0,0,4,12.73H4v2.15A3.31,3.31,0,0,0,7.3,18.2H20.63A3.31,3.31,0,0,0,24,15V12.74a3.3,3.3,0,0,0-3.29-3.31H7.3Zm-1.61,2L6.91,16H7.7l.93-3.14L9.53,16h.83l1.18-4.57h-.93l-.68,3-.87-3H8.21l-.88,3-.64-2.94Zm17.92,1.25v2.23a2.92,2.92,0,0,1-2.94,2.95H11.49A2.85,2.85,0,0,0,13.57,17a2.8,2.8,0,0,0,.86-2.06V12.71a2.92,2.92,0,0,1,2.94-2.94h3.3a2.9,2.9,0,0,1,2.09.85,2.84,2.84,0,0,1,.85,2.09ZM12,11.91a.5.5,0,0,0,.16.4.51.51,0,0,0,.4.16.5.5,0,0,0,.4-.16.47.47,0,0,0,.18-.4.52.52,0,0,0-.18-.4.54.54,0,0,0-.4-.17.56.56,0,0,0-.4.17A.59.59,0,0,0,12,11.91Zm.1,1V16H13V12.9Zm3.84-1.44V16h1V14.24h2.27v-.91H16.94V12.4h2.42v-.94Zm4,.44a.55.55,0,0,0,.16.39.52.52,0,0,0,.39.17.57.57,0,0,0,.41-.17.51.51,0,0,0,.06-.72l-.06-.06a.57.57,0,0,0-.41-.17.52.52,0,0,0-.39.17.58.58,0,0,0-.1.38Zm.08,1V16h1V12.9Z"/></g></g></g></svg>